# AST/ASF file generated using VICON BodyLanguage
# -----------------------------------------------
:version 1.10
:name VICON
:units
  mass 1.0
  length 0.45
  angle deg
:documentation
   .ast/.asf automatically generated from VICON data using
   VICON BodyBuilder and BodyLanguage model FoxedUp or BRILLIANT.MOD
:root
   order TX TY TZ RX RY RZ
   axis XYZ
   position 0 0 0  
   orientation 0 0 0 
:bonedata
  begin
     id 1 
     name lhipjoint
     direction 0.543289 -0.788407 0.288535 
     length 2.57127 
     axis 0 0 0  XYZ
  end
  begin
     id 2 
     name lfemur
     direction 0.34202 -0.939693 0  
     length 8.47298  
     axis 0 0 20  XYZ
    dof rx ry rz
    limits (-160.0 20.0)
           (-70.0 70.0)
           (-60.0 70.0)
  end
  begin
     id 3 
     name ltibia
     direction 0.34202 -0.939693 0   
     length 8.13367   
     axis 0 0 20   XYZ
    dof rx
    limits (-10.0 170.0)
  end
  begin
     id 4 
     name lfoot
     direction 0.114037 -0.313314 0.942778   
     length 2.67113   
     axis -90 7.62852e-016 20   XYZ
    dof rx rz
    limits (-45.0 90.0)
           (-70.0 20.0)
  end
  begin
     id 5 
     name ltoes
     direction 1.536e-011 -4.21847e-011 1   
     length 1.32217   
     axis -90 7.62852e-016 20   XYZ
    dof rx
    limits (-90.0 20.0)
  end
  begin
     id 6 
     name rhipjoint
     direction -0.571293 -0.770752 0.282074   
     length 2.63017  
     axis 0 0 0  XYZ 
  end
  begin
     id 7 
     name rfemur
     direction -0.34202 -0.939693 0   
     length 8.60885   
     axis 0 0 -20   XYZ
    dof rx ry rz
    limits (-160.0 20.0)
           (-70.0 70.0)
           (-70.0 60.0)
  end
  begin
     id 8 
     name rtibia
     direction -0.34202 -0.939693 0   
     length 8.07673   
     axis 0 0 -20   XYZ
    dof rx
    limits (-10.0 170.0)
 end
 begin
     id 9 
     name rfoot
     direction -0.121336 -0.333368 0.934956   
     length 2.81602  
     axis -90 -7.62852e-016 -20   XYZ
    dof rx rz
    limits (-45.0 90.0)
           (-20.0 70.0)
  end
  begin
     id 10 
     name rtoes
     direction -1.53491e-011 -4.21808e-011 1   
     length 1.38905   
     axis -90 -7.62852e-016 -20   XYZ
    dof rx
    limits (-90.0 20.0)
  end
  begin
     id 11 
     name lowerback
     direction 0.0136776 0.999869 -0.00861835   
     length 2.14087   
     axis 0 0 0   XYZ
    dof rx ry rz
    limits (-20.0 45.0)
           (-30.0 30.0)
           (-30.0 30.0)
  end
  begin
     id 12 
     name upperback
     direction -0.00789158 0.999804 0.0181308   
     length 2.14151   
     axis 0 0 0   XYZ
    dof rx ry rz
    limits (-20.0 45.0)
           (-30.0 30.0)
           (-30.0 30.0)
  end
  begin
     id 13 
     name thorax
     direction -0.0135231 0.999666 0.0220247   
     length 2.13644   
     axis 0 0 0   XYZ
    dof rx ry rz
    limits (-20.0 45.0)
           (-30.0 30.0)
           (-30.0 30.0)
  end
  begin
     id 14 
     name lowerneck
     direction -0.0392259 0.997317 0.0618018   
     length 1.65045   
     axis 0 0 0   XYZ
    dof rx ry rz
    limits (-20.0 45.0)
           (-30.0 30.0)
           (-30.0 30.0)
  end
  begin
     id 15 
     name upperneck
     direction 0.0765547 0.994276 -0.0745319   
     length 1.66045   
     axis 0 0 0   XYZ
    dof rx ry rz
    limits (-20.0 45.0)
           (-30.0 30.0)
           (-30.0 30.0)
  end
  begin
     id 16
     name head
     direction 0.0241564 0.999031 -0.036785  
     length 1.66594  
     axis 0 0 0   XYZ
    dof rx ry rz
    limits (-20.0 45.0)
           (-30.0 30.0)
           (-30.0 30.0)
  end
  begin
     id 17 
     name lclavicle
     direction 0.967398 0.249018 0.0461573  
     length 3.75176  
     axis 0 0 0   XYZ
    dof ry rz
    limits (-20.0 10.0)
           (0.0 20.0)
  end
  begin
     id 18 
     name lhumerus
     direction 1 -4.48963e-011 -3.05005e-027   
     length 5.93342   
     axis 180 -30 -90   XYZ
    dof rx ry rz
    limits (-60.0 90.0)
           (-90.0 90.0)
           (-90.0 90.0)
  end
  begin
     id 19
     name lradius
     direction 1 -4.48957e-011 1.07006e-026   
     length 3.94763   
     axis 180 -30 -90   XYZ
    dof rx
    limits (-10.0 170.0)
  end
  begin
     id 20
     name lwrist
     direction 1 -4.48978e-011 1.92422e-026   
     length 1.97382   
     axis -1.18182e-014 90 90   XYZ
    dof ry
    limits (-180.0 0.0)
 end
  begin
     id 21 
     name lhand
     direction 1 -4.48931e-011 3.84844e-026   
     length 0.560187   
     axis -2.45563e-014 90 90   XYZ
    dof rx rz
    limits (-90.0 90.0)
           (-45.0 45.0)
  end
  begin
     id 22 
     name lfingers
     direction 1 -4.48952e-011 7.69687e-026   
     length 0.451637   
     axis -4.91126e-014 90 90   XYZ
    dof rx
    limits (0.0 90.0)
  end
  begin
     id 23
     name lthumb
     direction 0.707107 -6.34901e-011 0.707107   
     length 0.648463   
     axis -90 45 2.85299e-015   XYZ
    dof rx rz
    limits (-45.0 45.0)
           (-45.0 45.0)
  end
  begin
     id 24 
     name rclavicle
     direction -0.965946 0.258716 0.00371831   
     length 3.63667  
     axis 0 0 0   XYZ 
    dof ry rz
    limits (-10.0 20.0)
           (-20.0 0.0)
  end
  begin
     id 25 
     name rhumerus
     direction -1 -4.48966e-011 -1.78361e-028  
     length 6.28647   
     axis 180 30 90   XYZ
    dof rx ry rz
    limits (-90.0 60.0)
           (-90.0 90.0)
           (-90.0 90.0)
  end
  begin
     id 26 
     name rradius
     direction -1 -4.48961e-011 1.05248e-026   
     length 3.81645   
     axis 180 30 90   XYZ
    dof rx
    limits (-10.0 170.0)
  end
  begin
     id 27 
     name rwrist
     direction -1 -4.48979e-011 1.92422e-026   
     length 1.90822   
     axis -1.18182e-014 -90 -90   XYZ
    dof ry
    limits (-180.0 0.0)
  end
  begin
     id 28
     name rhand
     direction -1 -4.48937e-011 3.84844e-026   
     length 0.646185   
     axis -2.45563e-014 -90 -90   XYZ
    dof rx rz
    limits (-90.0 90.0)
           (-45.0 45.0)
  end
  begin
     id 29
     name rfingers
     direction -1 -4.48953e-011 7.69687e-026   
     length 0.520971   
     axis -4.91126e-014 -90 -90   XYZ
    dof rx
    limits (0.0 90.0)
  end
  begin
     id 30
     name rthumb
     direction -0.707107 -6.3494e-011 0.707107   
     length 0.748013   
     axis -90 -45 -2.85299e-015   XYZ
    dof rx rz
    limits (-45.0 45.0)
           (-45.0 45.0)
  end
:hierarchy
  begin
    root lhipjoint rhipjoint lowerback
    lhipjoint lfemur
    lfemur ltibia
    ltibia lfoot
    lfoot ltoes
    rhipjoint rfemur
    rfemur rtibia
    rtibia rfoot
    rfoot rtoes
    lowerback upperback
    upperback thorax
    thorax lowerneck lclavicle rclavicle
    lowerneck upperneck
    upperneck head
    lclavicle lhumerus
    lhumerus lradius
    lradius lwrist
    lwrist lhand lthumb
    lhand lfingers
    rclavicle rhumerus
    rhumerus rradius
    rradius rwrist
    rwrist rhand rthumb
    rhand rfingers
  end

#!OML:ASF H:\HAZMAT1\Patient Classification 1\Patient 3\Session 1\dancer.ASF
:FULLY-SPECIFIED
:DEGREES
107
upperback -3.145530 -4.769220 -0.000242
rfoot -41.511398 -29.483200
lradius 20.230499
lthumb 12.242300 46.792702
rradius 29.921700
lwrist -20.857700
rhand -20.229200 -378.204010
rhumerus -52.155602 -2.979590 -85.998398
lowerneck -2.870660 -1.468480 -1.082990
lhand -13.882600 377.170990
ltibia 44.471802
head 1.155310 -0.964141 0.799026
rwrist 11.708300
lfingers 7.125020
rtoes 5.699070
lowerback -2.842150 -3.494620 5.418770
rfingers 7.125020
lclavicle 0.000000 0.000000
upperneck 2.082940 -1.975330 2.121000
rfemur -19.774599 -6.326530 25.185699
thorax -2.098260 -2.515770 -3.050750
rclavicle 0.000000 0.000000
rtibia 44.332298
lfoot -40.610298 14.723900
lhumerus -45.902500 10.390600 75.051804
rthumb 6.118580 -48.095501
root 25.552601 18.293400 -13.220500 13.707200 -37.309502 -363.348999
ltoes 14.801500
lfemur -20.964001 -369.315002 -19.289499
108
upperback -3.064370 -6.048070 -0.367505
rfoot -25.921900 -21.606100
lradius 23.046101
lthumb 11.652100 46.776600
rradius 30.309299
lwrist -17.531099
rhand -19.633801 -378.360992
rhumerus -57.656898 -3.731000 -84.091400
lowerneck -1.554760 -1.301290 -0.732648
lhand -14.494600 377.121002
ltibia 38.605801
head 0.125911 -0.859684 0.651044
rwrist 10.514200
lfingers 7.125020
rtoes 0.062035
lowerback -2.296430 -4.482720 3.697850
rfingers 7.125020
lclavicle -0.000000 0.000000
upperneck -0.497426 -1.727330 1.786880
rfemur -41.410801 -27.745001 26.810801
thorax -2.294380 -3.124890 -2.427700
rclavicle -0.000000 0.000000
rtibia 69.550102
lfoot -39.743198 15.091700
lhumerus -46.784698 5.207770 76.068199
rthumb 6.693290 -48.235298
root 24.460699 18.159201 -11.885200 14.672100 -35.759300 -360.587006
ltoes 11.105700
lfemur -15.173100 -367.819000 -21.542900
109
upperback -3.029840 -7.821810 -0.387167
rfoot -20.024300 -15.984600
lradius 21.049200
lthumb 11.210200 46.813499
rradius 25.228800
lwrist -18.774200
rhand -19.080299 -377.441010
rhumerus -61.134201 -6.452610 -79.996300
lowerneck -1.868520 -1.280070 -0.306109
lhand -14.952900 377.132996
ltibia 20.199400
head -0.505127 -0.855040 0.573694
rwrist 15.274000
lfingers 7.125020
rtoes -1.757770
lowerback -2.588530 -5.795680 4.011600
rfingers 7.125020
lclavicle -0.000000 0.000000
upperneck -2.733630 -1.686980 1.734090
rfemur -71.349297 -31.798201 38.111099
thorax -2.270930 -4.020930 -2.622220
rclavicle -0.000000 0.000000
rtibia 55.018299
lfoot -38.445999 19.884501
lhumerus -41.324501 3.986190 75.926903
rthumb 7.227610 -47.297501
root 21.848700 17.581301 -9.500990 17.160000 -31.944401 -358.381989
ltoes -0.318267
lfemur 1.790410 -373.501007 -21.382601
110
upperback -3.704230 -7.131850 1.763040
rfoot -18.927900 -13.109400
lradius 18.980301
lthumb 11.262700 44.074501
rradius 18.287201
lwrist -17.784000
rhand -17.814400 -373.588013
rhumerus -52.044800 -4.876870 -70.100304
lowerneck -3.624880 -0.260823 1.053350
lhand -14.898500 374.397003
ltibia 14.611300
head -1.261780 -0.268837 -0.400829
rwrist 31.068300
lfingers 7.125020
rtoes 12.246400
lowerback 0.359975 -5.515730 8.372510
rfingers 7.125020
lclavicle -0.000000 0.000000
upperneck -6.054820 -0.461819 -0.742222
rfemur -77.624702 -13.905900 32.370701
thorax -4.867580 -3.832560 -2.422140
rclavicle -0.000000 0.000000
rtibia 71.426300
lfoot -21.515200 16.383301
lhumerus -37.641499 6.067200 75.355499
rthumb 8.449470 -43.399399
root 17.641399 16.335400 -6.273110 23.685301 -33.633099 -362.084015
ltoes -22.676201
lfemur 16.686199 -375.062988 -14.894100
111
upperback -3.513960 -3.904270 0.074601
rfoot -34.458900 -18.763800
lradius 29.896000
lthumb 12.536100 42.316700
rradius 30.795401
lwrist -3.645550
rhand -16.193701 -375.703003
rhumerus -41.373199 10.838000 -70.837898
lowerneck -3.436660 -1.631880 0.712241
lhand -13.577900 372.713013
ltibia 73.782799
head -0.408647 -1.130250 -0.225837
rwrist 13.410500
lfingers 7.125020
rtoes 0.452230
lowerback 2.777890 -3.198960 7.430730
rfingers 7.125020
lclavicle 0.000000 -0.000000
upperneck -3.160310 -2.226680 -0.324034
rfemur -40.892399 -9.378180 30.131001
thorax -5.735070 -2.245770 -3.757980
rclavicle 0.000000 -0.000000
rtibia 61.624199
lfoot -17.441401 10.103800
lhumerus -42.276199 -7.953090 77.122498
rthumb 10.013300 -45.444698
root 12.822500 17.853701 -2.469530 18.300800 -36.862701 -362.522003
ltoes 2.414530
lfemur -26.043600 -363.717010 -13.237800
